{"glyphs":{"0":{"ha":882,"x_min":68,"x_max":814,"o":"m 68 136 l 68 949 q 203 1085 68 1085 l 678 1085 q 814 949 814 1085 l 814 136 q 678 0 814 0 l 203 0 q 68 136 68 0 m 203 949 l 203 136 l 678 136 l 678 949 l 203 949 z "},"1":{"ha":407,"x_min":68,"x_max":339,"o":"m 203 1085 q 339 949 339 1085 l 339 0 l 203 0 l 203 949 l 68 949 l 68 1085 l 203 1085 z "},"2":{"ha":882,"x_min":68,"x_max":814,"o":"m 68 949 l 68 1085 l 678 1085 q 814 949 814 1085 l 814 610 q 678 475 814 475 l 203 475 l 203 136 l 814 136 l 814 0 l 68 0 l 68 475 q 203 610 68 610 l 678 610 l 678 949 l 68 949 z "},"3":{"ha":882,"x_min":68,"x_max":814,"o":"m 678 475 l 68 475 l 68 610 l 678 610 l 678 949 l 68 949 l 68 1085 l 678 1085 q 814 949 814 1085 l 814 136 q 678 0 814 0 l 68 0 l 68 136 l 678 136 l 678 475 z "},"4":{"ha":882,"x_min":68,"x_max":814,"o":"m 203 610 l 678 610 l 678 1085 l 814 1085 l 814 0 l 678 0 l 678 475 l 68 475 l 68 1085 l 203 1085 l 203 610 z "},"5":{"ha":882,"x_min":68,"x_max":814,"o":"m 203 949 l 203 610 l 678 610 q 814 475 814 610 l 814 136 q 678 0 814 0 l 68 0 l 68 136 l 678 136 l 678 475 l 203 475 q 68 610 68 475 l 68 1085 l 814 1085 l 814 949 l 203 949 z "},"6":{"ha":882,"x_min":68,"x_max":814,"o":"m 68 949 q 203 1085 68 1085 l 814 1085 l 814 949 l 203 949 l 203 610 l 678 610 q 814 475 814 610 l 814 136 q 678 0 814 0 l 203 0 q 68 136 68 0 l 68 949 m 203 136 l 678 136 l 678 475 l 203 475 l 203 136 z "},"7":{"ha":814,"x_min":68,"x_max":746,"o":"m 515 0 l 368 0 l 567 949 l 68 949 l 68 1085 l 746 1085 l 515 0 z "},"8":{"ha":882,"x_min":68,"x_max":814,"o":"m 678 1085 q 814 949 814 1085 l 814 678 q 746 543 814 547 q 814 407 814 538 l 814 136 q 678 0 814 0 l 203 0 q 68 136 68 0 l 68 407 q 136 543 68 538 q 68 678 68 547 l 68 949 q 203 1085 68 1085 l 678 1085 m 678 136 l 678 475 l 203 475 l 203 136 l 678 136 m 678 610 l 678 949 l 203 949 l 203 610 l 678 610 z "},"9":{"ha":882,"x_min":68,"x_max":814,"o":"m 814 136 q 678 0 814 0 l 68 0 l 68 136 l 678 136 l 678 475 l 203 475 q 68 610 68 475 l 68 949 q 203 1085 68 1085 l 678 1085 q 814 949 814 1085 l 814 136 m 678 949 l 203 949 l 203 610 l 678 610 l 678 949 z "},"\u0000":{"ha":0,"x_min":0,"x_max":0,"o":""},"\u001d":{"ha":0,"x_min":0,"x_max":0,"o":""}," ":{"ha":543,"x_min":0,"x_max":0,"o":""}," ":{"ha":543,"x_min":0,"x_max":0,"o":""},"!":{"ha":271,"x_min":68,"x_max":203,"o":"m 68 271 l 68 1085 l 203 1085 l 203 271 l 68 271 m 203 136 l 203 0 l 68 0 l 68 136 l 203 136 z "},"\"":{"ha":543,"x_min":68,"x_max":475,"o":"m 203 1085 l 203 746 l 68 746 l 68 1085 l 203 1085 m 475 1085 l 475 746 l 339 746 l 339 1085 l 475 1085 z "},"#":{"ha":1017,"x_min":68,"x_max":949,"o":"m 203 407 l 203 678 l 68 678 l 68 814 l 203 814 l 203 1085 l 339 1085 l 339 814 l 678 814 l 678 1085 l 814 1085 l 814 814 l 949 814 l 949 678 l 814 678 l 814 407 l 949 407 l 949 271 l 814 271 l 814 0 l 678 0 l 678 271 l 339 271 l 339 0 l 203 0 l 203 271 l 68 271 l 68 407 l 203 407 m 339 678 l 339 407 l 678 407 l 678 678 l 339 678 z "},"$":{"ha":882,"x_min":68,"x_max":814,"o":"m 376 1085 l 376 1221 l 511 1221 l 511 1085 l 814 1085 l 814 949 l 203 949 l 203 610 l 678 610 q 814 475 814 610 l 814 136 q 678 0 814 0 l 511 0 l 511 -136 l 376 -136 l 376 0 l 68 0 l 68 136 l 678 136 l 678 475 l 203 475 q 68 610 68 475 l 68 949 q 203 1085 68 1085 l 376 1085 z "},"%":{"ha":949,"x_min":68,"x_max":882,"o":"m 882 1085 l 225 0 l 68 0 l 725 1085 l 882 1085 m 746 407 l 746 271 l 610 271 l 610 407 l 746 407 m 339 814 l 339 678 l 203 678 l 203 814 l 339 814 z "},"&":{"ha":1017,"x_min":68,"x_max":949,"o":"m 678 610 l 678 949 l 203 949 l 203 610 l 678 610 m 678 136 l 678 475 l 203 475 l 203 136 l 678 136 m 203 0 q 68 136 68 0 l 68 407 q 136 543 68 538 q 68 678 68 547 l 68 949 q 203 1085 68 1085 l 678 1085 q 814 949 814 1085 l 814 678 q 746 543 814 547 q 814 407 814 538 l 814 136 l 949 136 l 949 0 l 814 0 l 814 -136 l 678 -136 l 678 0 l 203 0 z "},"'":{"ha":271,"x_min":68,"x_max":203,"o":"m 203 1085 l 203 746 l 68 746 l 68 1085 l 203 1085 z "},"(":{"ha":543,"x_min":68,"x_max":475,"o":"m 68 1221 l 475 1221 l 475 1085 l 203 1085 l 203 0 l 475 0 l 475 -136 l 68 -136 l 68 1221 z "},")":{"ha":543,"x_min":68,"x_max":475,"o":"m 475 -136 l 68 -136 l 68 0 l 339 0 l 339 1085 l 68 1085 l 68 1221 l 475 1221 l 475 -136 z "},"*":{"ha":746,"x_min":68,"x_max":678,"o":"m 407 758 l 570 914 l 616 865 l 458 712 l 678 712 l 678 644 l 458 644 l 616 492 l 570 442 l 407 599 l 407 373 l 339 373 l 339 599 l 176 442 l 130 492 l 288 644 l 68 644 l 68 712 l 288 712 l 130 865 l 176 914 l 339 758 l 339 983 l 407 983 l 407 758 z "},"+":{"ha":814,"x_min":68,"x_max":746,"o":"m 475 610 l 746 610 l 746 475 l 475 475 l 475 203 l 339 203 l 339 475 l 68 475 l 68 610 l 339 610 l 339 882 l 475 882 l 475 610 z "},",":{"ha":271,"x_min":0,"x_max":203,"o":"m 203 136 l 136 -136 l 0 -136 l 68 136 l 203 136 z "},"-":{"ha":612,"x_min":67,"x_max":543,"o":"m 543 610 l 543 475 l 68 475 l 67 610 l 543 610 z "},"­":{"ha":612,"x_min":67,"x_max":543,"o":"m 543 610 l 543 475 l 68 475 l 67 610 l 543 610 z "},".":{"ha":271,"x_min":68,"x_max":203,"o":"m 203 136 l 203 0 l 68 0 l 68 136 l 203 136 z "},"/":{"ha":949,"x_min":68,"x_max":882,"o":"m 882 1085 l 225 0 l 68 0 l 725 1085 l 882 1085 z "},":":{"ha":271,"x_min":68,"x_max":203,"o":"m 203 136 l 203 0 l 68 0 l 68 136 l 203 136 m 203 610 l 203 475 l 68 475 l 68 610 l 203 610 z "},";":{"ha":271,"x_min":0,"x_max":203,"o":"m 203 136 l 136 -136 l 0 -136 l 68 136 l 203 136 m 203 610 l 203 475 l 68 475 l 68 610 l 203 610 z "},";":{"ha":271,"x_min":0,"x_max":203,"o":"m 203 136 l 136 -136 l 0 -136 l 68 136 l 203 136 m 203 610 l 203 475 l 68 475 l 68 610 l 203 610 z "},"<":{"ha":610,"x_min":68,"x_max":543,"o":"m 543 882 l 543 715 l 271 475 l 543 237 l 543 68 l 68 475 l 543 882 z "},"=":{"ha":746,"x_min":68,"x_max":678,"o":"m 678 746 l 678 610 l 68 610 l 68 746 l 678 746 m 678 407 l 678 271 l 68 271 l 68 407 l 678 407 z "},">":{"ha":610,"x_min":68,"x_max":543,"o":"m 543 475 l 68 68 l 68 237 l 339 475 l 68 715 l 68 882 l 543 475 z "},"?":{"ha":882,"x_min":68,"x_max":814,"o":"m 475 136 l 475 0 l 339 0 l 339 136 l 475 136 m 339 610 l 678 610 l 678 949 l 68 949 l 68 1085 l 678 1085 q 814 949 814 1085 l 814 610 q 679 475 814 475 l 475 475 l 475 271 l 339 271 l 339 610 z "},"@":{"ha":1051,"x_min":68,"x_max":983,"o":"m 540 319 q 399 263 475 263 q 302 300 332 263 q 281 365 281 326 q 285 405 281 383 q 406 609 309 520 q 614 699 503 699 q 753 657 670 699 q 672 475 686 515 q 653 409 659 436 q 650 388 650 397 q 680 354 650 354 q 790 422 739 354 q 859 583 840 491 q 872 663 872 627 q 831 771 872 730 q 661 833 770 833 q 362 710 495 833 q 191 399 230 586 q 182 323 182 359 q 221 194 182 248 q 397 115 279 115 q 522 135 458 115 q 623 190 585 156 l 664 117 q 519 48 608 75 q 356 20 431 20 q 122 119 199 20 q 68 286 68 187 q 78 378 68 329 q 304 770 128 613 q 703 928 481 928 q 932 843 858 928 q 983 695 983 785 q 974 611 983 656 q 851 373 945 477 q 644 270 758 270 q 540 319 572 270 m 585 621 q 474 557 528 621 q 405 420 420 494 q 402 397 402 408 q 446 351 402 351 q 519 382 486 351 q 573 463 553 414 q 627 598 593 512 q 585 621 609 621 z "},"A":{"ha":882,"x_min":68,"x_max":814,"o":"m 678 271 l 678 949 l 203 949 l 203 271 l 678 271 m 203 136 l 203 0 l 68 0 l 68 949 q 203 1085 68 1085 l 678 1085 q 814 949 814 1085 l 814 0 l 678 0 l 678 136 l 203 136 z "},"B":{"ha":882,"x_min":68,"x_max":814,"o":"m 203 136 l 678 136 l 678 475 l 203 475 l 203 136 m 203 610 l 678 610 l 678 949 l 203 949 l 203 610 m 678 1085 q 814 949 814 1085 l 814 136 q 678 0 814 0 l 68 0 l 68 1085 l 678 1085 z "},"C":{"ha":882,"x_min":68,"x_max":814,"o":"m 814 136 l 814 0 l 203 0 q 68 136 68 0 l 68 949 q 203 1085 68 1085 l 814 1085 l 814 949 l 203 949 l 203 136 l 814 136 z "},"D":{"ha":882,"x_min":68,"x_max":814,"o":"m 68 949 l 68 1085 l 678 1085 q 814 949 814 1085 l 814 136 q 678 0 814 0 l 68 0 l 68 814 l 203 814 l 203 136 l 678 136 l 678 949 l 68 949 z "},"E":{"ha":882,"x_min":68,"x_max":814,"o":"m 814 1085 l 814 949 l 203 949 l 203 610 l 814 610 l 814 475 l 203 475 l 203 136 l 814 136 l 814 0 l 68 0 l 68 1085 l 814 1085 z "},"F":{"ha":882,"x_min":68,"x_max":814,"o":"m 814 1085 l 814 949 l 203 949 l 203 610 l 814 610 l 814 475 l 203 475 l 203 0 l 68 0 l 68 1085 l 814 1085 z "},"G":{"ha":882,"x_min":68,"x_max":814,"o":"m 203 949 l 203 136 l 678 136 l 678 610 l 814 610 l 814 0 l 203 0 q 68 136 68 0 l 68 949 q 203 1085 68 1085 l 814 1085 l 814 949 l 203 949 z "},"H":{"ha":882,"x_min":68,"x_max":814,"o":"m 203 610 l 678 610 l 678 1085 l 814 1085 l 814 0 l 678 0 l 678 475 l 203 475 l 203 0 l 68 0 l 68 1085 l 203 1085 l 203 610 z "},"I":{"ha":271,"x_min":68,"x_max":203,"o":"m 203 1085 l 203 0 l 68 0 l 68 1085 l 203 1085 z "},"J":{"ha":678,"x_min":68,"x_max":610,"o":"m 68 136 l 475 136 l 475 1085 l 610 1085 l 610 136 q 475 0 610 0 l 68 0 l 68 136 z "},"K":{"ha":814,"x_min":68,"x_max":746,"o":"m 203 691 l 574 1085 l 746 1085 l 249 543 l 746 0 l 574 0 l 203 394 l 203 0 l 68 0 l 68 1085 l 203 1085 l 203 691 z "},"L":{"ha":678,"x_min":68,"x_max":610,"o":"m 610 0 l 203 0 q 68 136 68 0 l 68 1085 l 203 1085 l 203 136 l 610 136 l 610 0 z "},"M":{"ha":1356,"x_min":68,"x_max":1289,"o":"m 746 814 l 746 0 l 610 0 l 610 814 l 746 814 m 203 949 l 203 0 l 68 0 l 68 949 q 203 1085 68 1085 l 1153 1085 q 1289 949 1289 1085 l 1289 0 l 1153 0 l 1153 949 l 203 949 z "},"N":{"ha":882,"x_min":68,"x_max":814,"o":"m 678 0 l 678 949 l 203 949 l 203 0 l 68 0 l 68 949 q 203 1085 68 1085 l 678 1085 q 814 949 814 1085 l 814 0 l 678 0 z "},"O":{"ha":882,"x_min":68,"x_max":814,"o":"m 68 136 l 68 949 q 203 1085 68 1085 l 678 1085 q 814 949 814 1085 l 814 136 q 678 0 814 0 l 203 0 q 68 136 68 0 m 203 949 l 203 136 l 678 136 l 678 949 l 203 949 z "},"P":{"ha":882,"x_min":68,"x_max":814,"o":"m 203 475 l 203 0 l 68 0 l 68 1085 l 678 1085 q 814 949 814 1085 l 814 610 q 678 475 814 475 l 203 475 m 203 610 l 678 610 l 678 949 l 203 949 l 203 610 z "},"Q":{"ha":882,"x_min":68,"x_max":814,"o":"m 68 136 l 68 949 q 203 1085 68 1085 l 678 1085 q 814 949 814 1085 l 814 136 q 678 0 814 0 l 203 0 q 68 136 68 0 m 203 949 l 203 136 l 678 136 l 678 949 l 203 949 z "},"R":{"ha":882,"x_min":68,"x_max":814,"o":"m 678 1085 q 814 949 814 1085 l 814 610 q 678 475 814 475 l 373 475 l 814 0 l 642 0 l 203 466 l 203 0 l 68 0 l 68 1085 l 678 1085 m 203 610 l 678 610 l 678 949 l 203 949 l 203 610 z "},"S":{"ha":882,"x_min":68,"x_max":814,"o":"m 203 949 l 203 610 l 678 610 q 814 475 814 610 l 814 136 q 678 0 814 0 l 68 0 l 68 136 l 678 136 l 678 475 l 203 475 q 68 610 68 475 l 68 949 q 203 1085 68 1085 l 814 1085 l 814 949 l 203 949 z "},"T":{"ha":814,"x_min":68,"x_max":746,"o":"m 339 949 l 68 949 l 68 1085 l 746 1085 l 746 949 l 475 949 l 475 0 l 339 0 l 339 949 z "},"U":{"ha":882,"x_min":68,"x_max":814,"o":"m 814 1085 l 814 136 q 678 0 814 0 l 203 0 q 68 136 68 0 l 68 1085 l 203 1085 l 203 136 l 678 136 l 678 1085 l 814 1085 z "},"V":{"ha":882,"x_min":68,"x_max":814,"o":"m 814 1085 l 437 0 l 68 1085 l 203 1085 l 439 407 l 678 1085 l 814 1085 z "},"W":{"ha":1356,"x_min":68,"x_max":1289,"o":"m 610 136 l 610 1085 l 746 1085 l 746 136 l 1153 136 l 1153 1085 l 1289 1085 l 1289 136 q 1153 0 1289 0 l 203 0 q 68 136 68 0 l 68 1085 l 203 1085 l 203 136 l 610 136 z "},"X":{"ha":814,"x_min":68,"x_max":746,"o":"m 407 715 l 249 543 l 407 370 l 565 543 l 407 715 m 317 812 l 68 1085 l 239 1085 l 407 907 l 574 1085 l 746 1085 l 496 812 l 610 691 l 746 543 l 610 394 l 496 273 l 746 0 l 574 0 l 407 178 l 239 0 l 68 0 l 317 273 l 203 394 l 68 543 l 203 691 l 317 812 z "},"Y":{"ha":882,"x_min":68,"x_max":814,"o":"m 678 475 l 203 475 q 68 610 68 475 l 68 1085 l 203 1085 l 203 610 l 678 610 l 678 1085 l 814 1085 l 814 136 q 678 0 814 0 l 68 0 l 68 136 l 678 136 l 678 475 z "},"Z":{"ha":882,"x_min":68,"x_max":814,"o":"m 299 136 l 814 136 l 814 0 l 68 0 l 579 949 l 68 949 l 68 1085 l 814 1085 l 299 136 z "},"[":{"ha":543,"x_min":68,"x_max":475,"o":"m 68 1221 l 475 1221 l 475 1085 l 203 1085 l 203 0 l 475 0 l 475 -136 l 68 -136 l 68 1221 z "},"\\":{"ha":949,"x_min":68,"x_max":882,"o":"m 224 1085 l 882 0 l 724 0 l 68 1085 l 224 1085 z "},"]":{"ha":543,"x_min":68,"x_max":475,"o":"m 475 -136 l 68 -136 l 68 0 l 339 0 l 339 1085 l 68 1085 l 68 1221 l 475 1221 l 475 -136 z "},"^":{"ha":677,"x_min":68,"x_max":610,"o":"m 339 1085 l 610 678 l 475 678 l 339 882 l 203 678 l 68 678 l 339 1085 z "},"_":{"ha":882,"x_min":68,"x_max":814,"o":"m 814 0 l 814 -136 l 68 -136 l 68 0 l 814 0 z "},"`":{"ha":407,"x_min":68,"x_max":339,"o":"m 203 1085 l 339 746 l 203 746 l 68 1085 l 203 1085 z "},"a":{"ha":882,"x_min":68,"x_max":814,"o":"m 678 949 l 203 949 l 203 0 l 68 0 l 68 949 q 203 1085 68 1085 l 678 1085 q 814 949 814 1085 l 814 0 l 678 0 l 678 949 m 543 271 l 543 136 l 339 136 l 339 271 l 543 271 z "},"b":{"ha":882,"x_min":68,"x_max":814,"o":"m 678 475 l 68 475 l 68 610 l 678 610 l 678 949 l 68 949 l 68 1085 l 678 1085 q 814 949 814 1085 l 814 136 q 678 0 814 0 l 68 0 l 68 136 l 678 136 l 678 475 z "},"c":{"ha":882,"x_min":68,"x_max":814,"o":"m 814 136 l 814 0 l 203 0 q 68 136 68 0 l 68 949 q 203 1085 68 1085 l 814 1085 l 814 949 l 203 949 l 203 136 l 814 136 z "},"d":{"ha":882,"x_min":68,"x_max":814,"o":"m 68 949 l 68 1085 l 678 1085 q 814 949 814 1085 l 814 136 q 678 0 814 0 l 68 0 l 68 814 l 203 814 l 203 136 l 678 136 l 678 949 l 68 949 z "},"e":{"ha":882,"x_min":68,"x_max":814,"o":"m 814 1085 l 814 949 l 68 949 l 68 1085 l 814 1085 m 814 610 l 814 475 l 68 475 l 68 610 l 814 610 m 814 136 l 814 0 l 68 0 l 68 136 l 814 136 z "},"f":{"ha":882,"x_min":68,"x_max":814,"o":"m 68 949 l 68 1085 l 814 1085 l 814 949 l 68 949 m 814 610 l 814 475 l 203 475 l 203 0 l 68 0 l 68 610 l 814 610 z "},"g":{"ha":882,"x_min":68,"x_max":814,"o":"m 203 949 l 203 136 l 678 136 l 678 610 l 814 610 l 814 0 l 203 0 q 68 136 68 0 l 68 949 q 203 1085 68 1085 l 814 1085 l 814 949 l 203 949 z "},"h":{"ha":882,"x_min":68,"x_max":814,"o":"m 203 610 l 678 610 l 678 1085 l 814 1085 l 814 0 l 678 0 l 678 475 l 203 475 l 203 0 l 68 0 l 68 1085 l 203 1085 l 203 610 z "},"i":{"ha":271,"x_min":68,"x_max":203,"o":"m 203 814 l 203 0 l 68 0 l 68 814 l 203 814 m 203 1085 l 203 949 l 68 949 l 68 1085 l 203 1085 z "},"j":{"ha":678,"x_min":68,"x_max":610,"o":"m 68 136 l 475 136 l 475 1085 l 610 1085 l 610 136 q 475 0 610 0 l 68 0 l 68 136 z "},"k":{"ha":814,"x_min":68,"x_max":746,"o":"m 249 543 l 746 0 l 574 0 l 203 394 l 68 543 l 203 691 l 574 1085 l 746 1085 l 249 543 z "},"l":{"ha":678,"x_min":68,"x_max":610,"o":"m 610 0 l 203 0 q 68 136 68 0 l 68 1085 l 203 1085 l 203 136 l 610 136 l 610 0 z "},"m":{"ha":1356,"x_min":68,"x_max":1289,"o":"m 746 949 l 746 0 l 610 0 l 610 949 l 203 949 l 203 0 l 68 0 l 68 949 q 203 1085 68 1085 l 1153 1085 q 1289 949 1289 1085 l 1289 0 l 1153 0 l 1153 949 l 746 949 z "},"n":{"ha":882,"x_min":68,"x_max":814,"o":"m 678 0 l 678 949 l 203 949 l 203 0 l 68 0 l 68 949 q 203 1085 68 1085 l 678 1085 q 814 949 814 1085 l 814 0 l 678 0 z "},"o":{"ha":882,"x_min":68,"x_max":814,"o":"m 68 136 l 68 949 q 203 1085 68 1085 l 678 1085 q 814 949 814 1085 l 814 136 q 678 0 814 0 l 203 0 q 68 136 68 0 m 203 949 l 203 136 l 678 136 l 678 949 l 203 949 z "},"p":{"ha":882,"x_min":68,"x_max":814,"o":"m 68 949 l 68 1085 l 678 1085 q 814 949 814 1085 l 814 610 q 678 475 814 475 l 203 475 l 203 0 l 68 0 l 68 610 l 678 610 l 678 949 l 68 949 z "},"q":{"ha":882,"x_min":68,"x_max":814,"o":"m 68 136 l 68 949 q 203 1085 68 1085 l 678 1085 q 814 949 814 1085 l 814 136 q 678 0 814 0 l 203 0 q 68 136 68 0 m 203 949 l 203 136 l 678 136 l 678 949 l 203 949 z "},"r":{"ha":882,"x_min":68,"x_max":814,"o":"m 373 475 l 814 0 l 642 0 l 68 610 l 678 610 l 678 949 l 68 949 l 68 1085 l 678 1085 q 814 949 814 1085 l 814 610 q 678 475 814 475 l 373 475 z "},"s":{"ha":882,"x_min":68,"x_max":814,"o":"m 203 949 l 203 610 l 678 610 q 814 475 814 610 l 814 136 q 678 0 814 0 l 68 0 l 68 136 l 678 136 l 678 475 l 203 475 q 68 610 68 475 l 68 949 q 203 1085 68 1085 l 814 1085 l 814 949 l 203 949 z "},"t":{"ha":814,"x_min":68,"x_max":746,"o":"m 339 949 l 68 949 l 68 1085 l 746 1085 l 746 949 l 475 949 l 475 0 l 339 0 l 339 949 z "},"u":{"ha":882,"x_min":68,"x_max":814,"o":"m 814 1085 l 814 136 q 678 0 814 0 l 203 0 q 68 136 68 0 l 68 1085 l 203 1085 l 203 136 l 678 136 l 678 1085 l 814 1085 z "},"v":{"ha":882,"x_min":68,"x_max":814,"o":"m 814 1085 l 437 0 l 68 1085 l 203 1085 l 439 407 l 678 1085 l 814 1085 z "},"w":{"ha":1356,"x_min":68,"x_max":1289,"o":"m 610 271 l 610 1085 l 746 1085 l 746 271 l 610 271 m 1153 136 l 1153 1085 l 1289 1085 l 1289 136 q 1153 0 1289 0 l 203 0 q 68 136 68 0 l 68 1085 l 203 1085 l 203 136 l 1153 136 z "},"x":{"ha":814,"x_min":68,"x_max":746,"o":"m 68 1085 l 239 1085 l 610 691 l 746 543 l 610 394 l 239 0 l 68 0 l 565 543 l 68 1085 z "},"y":{"ha":882,"x_min":68,"x_max":814,"o":"m 678 475 l 203 475 q 68 610 68 475 l 68 1085 l 203 1085 l 203 610 l 678 610 l 678 1085 l 814 1085 l 814 136 q 678 0 814 0 l 68 0 l 68 136 l 678 136 l 678 475 z "},"z":{"ha":882,"x_min":68,"x_max":814,"o":"m 299 136 l 814 136 l 814 0 l 68 0 l 579 949 l 68 949 l 68 1085 l 814 1085 l 299 136 z "},"{":{"ha":610,"x_min":68,"x_max":543,"o":"m 136 610 l 136 1221 l 543 1221 l 543 1085 l 271 1085 l 271 0 l 543 0 l 543 -136 l 136 -136 l 136 475 l 68 475 l 68 610 l 136 610 z "},"|":{"ha":271,"x_min":68,"x_max":203,"o":"m 203 1153 l 203 -68 l 68 -68 l 68 1153 l 203 1153 z "},"}":{"ha":610,"x_min":68,"x_max":543,"o":"m 543 610 l 543 475 l 475 475 l 475 -136 l 68 -136 l 68 0 l 339 0 l 339 1085 l 68 1085 l 68 1221 l 475 1221 l 475 610 l 543 610 z "},"~":{"ha":746,"x_min":68,"x_max":678,"o":"m 68 407 l 68 541 l 271 610 l 475 475 l 678 543 l 678 407 l 475 339 l 271 475 l 68 407 z "},"£":{"ha":949,"x_min":68,"x_max":882,"o":"m 136 475 l 68 475 l 68 610 l 136 610 l 136 949 q 271 1085 136 1085 l 746 1085 q 882 949 882 1085 l 882 746 l 746 746 l 746 949 l 271 949 l 271 610 l 882 610 l 882 475 l 271 475 l 271 136 l 882 136 l 882 0 l 136 0 l 136 475 z "},"¥":{"ha":882,"x_min":68,"x_max":814,"o":"m 814 339 l 814 203 l 508 203 l 508 0 l 372 0 l 372 203 l 68 203 l 68 339 l 372 339 l 372 475 l 68 475 l 68 1085 l 203 1085 l 203 610 l 678 610 l 678 1085 l 814 1085 l 814 475 l 508 475 l 508 339 l 814 339 z "},"´":{"ha":407,"x_min":68,"x_max":339,"o":"m 339 1085 l 203 746 l 68 746 l 203 1085 l 339 1085 z "},"÷":{"ha":678,"x_min":68,"x_max":610,"o":"m 610 610 l 610 475 l 68 475 l 68 610 l 610 610 m 407 339 l 407 203 l 271 203 l 271 339 l 407 339 m 407 882 l 407 746 l 271 746 l 271 882 l 407 882 z "},"ˆ":{"ha":677,"x_min":68,"x_max":610,"o":"m 339 1085 l 610 678 l 475 678 l 339 882 l 203 678 l 68 678 l 339 1085 z "},"˜":{"ha":746,"x_min":68,"x_max":678,"o":"m 68 882 l 68 1015 l 271 1085 l 475 949 l 678 1017 l 678 882 l 475 814 l 271 949 l 68 882 z "},"˝":{"ha":543,"x_min":68,"x_max":475,"o":"m 203 1085 l 203 746 l 68 746 l 68 1085 l 203 1085 m 475 1085 l 475 746 l 339 746 l 339 1085 l 475 1085 z "},"–":{"ha":746,"x_min":68,"x_max":678,"o":"m 678 610 l 678 475 l 68 475 l 68 610 l 678 610 z "},"—":{"ha":1356,"x_min":68,"x_max":1289,"o":"m 1288 610 l 1289 475 l 68 475 l 68 610 l 1288 610 z "},"‘":{"ha":271,"x_min":68,"x_max":203,"o":"m 203 1085 l 203 746 l 68 746 l 68 1085 l 203 1085 z "},"’":{"ha":271,"x_min":68,"x_max":203,"o":"m 203 1085 l 203 746 l 68 746 l 68 1085 l 203 1085 z "},"‚":{"ha":271,"x_min":68,"x_max":203,"o":"m 203 136 l 203 -203 l 68 -203 l 68 136 l 203 136 z "},"“":{"ha":543,"x_min":68,"x_max":475,"o":"m 203 1085 l 203 746 l 68 746 l 68 1085 l 203 1085 m 475 1085 l 475 746 l 339 746 l 339 1085 l 475 1085 z "},"”":{"ha":543,"x_min":68,"x_max":475,"o":"m 203 1085 l 203 746 l 68 746 l 68 1085 l 203 1085 m 475 1085 l 475 746 l 339 746 l 339 1085 l 475 1085 z "},"„":{"ha":543,"x_min":68,"x_max":475,"o":"m 203 136 l 203 -203 l 68 -203 l 68 136 l 203 136 m 475 136 l 475 -203 l 339 -203 l 339 136 l 475 136 z "},"•":{"ha":407,"x_min":68,"x_max":339,"o":"m 339 678 l 339 407 l 68 407 l 68 678 l 339 678 z "},"…":{"ha":814,"x_min":68,"x_max":746,"o":"m 203 136 l 203 0 l 68 0 l 68 136 l 203 136 m 475 136 l 475 0 l 339 0 l 339 136 l 475 136 m 746 136 l 746 0 l 610 0 l 610 136 l 746 136 z "},"‹":{"ha":610,"x_min":68,"x_max":543,"o":"m 543 882 l 543 715 l 271 475 l 543 237 l 543 68 l 68 475 l 543 882 z "},"›":{"ha":610,"x_min":68,"x_max":543,"o":"m 543 475 l 68 68 l 68 237 l 339 475 l 68 715 l 68 882 l 543 475 z "},"€":{"ha":949,"x_min":68,"x_max":882,"o":"m 882 0 l 271 0 q 136 136 136 0 l 136 475 l 68 475 l 68 610 l 136 610 l 136 949 q 271 1085 136 1085 l 746 1085 q 882 949 882 1085 l 882 746 l 746 746 l 746 949 l 271 949 l 271 610 l 882 610 l 882 475 l 271 475 l 271 136 l 746 136 l 746 339 l 882 339 l 882 0 z "},"™":{"ha":407,"x_min":68,"x_max":339,"o":"m 339 678 l 339 407 l 68 407 l 68 678 l 339 678 z "},"−":{"ha":612,"x_min":67,"x_max":543,"o":"m 543 610 l 543 475 l 68 475 l 67 610 l 543 610 z "}}}
